<svg width="350" height="320" viewBox="0 0 350 320" fill="none" xmlns="http://www.w3.org/2000/svg">
<path d="M120.212 47V21.5455H125.594V42.5629H136.507V47H120.212ZM148.672 47.3729C146.708 47.3729 145.017 46.9751 143.601 46.1797C142.192 45.3759 141.107 44.2408 140.344 42.7741C139.582 41.2992 139.201 39.555 139.201 37.5415C139.201 35.5778 139.582 33.8543 140.344 32.3711C141.107 30.8879 142.18 29.732 143.563 28.9034C144.955 28.0748 146.588 27.6605 148.46 27.6605C149.72 27.6605 150.892 27.8635 151.978 28.2695C153.071 28.6673 154.024 29.268 154.836 30.0717C155.657 30.8755 156.295 31.8864 156.75 33.1044C157.206 34.3142 157.434 35.7311 157.434 37.3551V38.8093H141.314V35.5281H152.45C152.45 34.7657 152.284 34.0904 151.953 33.5021C151.621 32.9138 151.162 32.454 150.573 32.1225C149.993 31.7828 149.318 31.6129 148.547 31.6129C147.744 31.6129 147.031 31.7994 146.41 32.1722C145.796 32.5368 145.316 33.0298 144.968 33.6513C144.62 34.2644 144.442 34.948 144.433 35.7021V38.8217C144.433 39.7663 144.607 40.5825 144.955 41.2702C145.312 41.958 145.813 42.4883 146.459 42.8612C147.106 43.234 147.872 43.4205 148.759 43.4205C149.347 43.4205 149.886 43.3376 150.374 43.1719C150.863 43.0062 151.282 42.7576 151.63 42.4261C151.978 42.0947 152.243 41.6887 152.425 41.2081L157.322 41.5312C157.074 42.7079 156.564 43.7353 155.793 44.6136C155.031 45.4837 154.045 46.1631 152.835 46.652C151.634 47.1326 150.246 47.3729 148.672 47.3729ZM178.175 27.9091L171.501 47H165.535L158.86 27.9091H164.453L168.418 41.5685H168.617L172.569 27.9091H178.175ZM188.969 47.3729C187.006 47.3729 185.315 46.9751 183.898 46.1797C182.49 45.3759 181.404 44.2408 180.642 42.7741C179.88 41.2992 179.499 39.555 179.499 37.5415C179.499 35.5778 179.88 33.8543 180.642 32.3711C181.404 30.8879 182.477 29.732 183.861 28.9034C185.253 28.0748 186.886 27.6605 188.758 27.6605C190.018 27.6605 191.19 27.8635 192.276 28.2695C193.369 28.6673 194.322 29.268 195.134 30.0717C195.955 30.8755 196.593 31.8864 197.048 33.1044C197.504 34.3142 197.732 35.7311 197.732 37.3551V38.8093H181.612V35.5281H192.748C192.748 34.7657 192.582 34.0904 192.251 33.5021C191.919 32.9138 191.459 32.454 190.871 32.1225C190.291 31.7828 189.616 31.6129 188.845 31.6129C188.041 31.6129 187.329 31.7994 186.707 32.1722C186.094 32.5368 185.614 33.0298 185.266 33.6513C184.918 34.2644 184.739 34.948 184.731 35.7021V38.8217C184.731 39.7663 184.905 40.5825 185.253 41.2702C185.609 41.958 186.111 42.4883 186.757 42.8612C187.403 43.234 188.17 43.4205 189.056 43.4205C189.645 43.4205 190.183 43.3376 190.672 43.1719C191.161 43.0062 191.58 42.7576 191.928 42.4261C192.276 42.0947 192.541 41.6887 192.723 41.2081L197.62 41.5312C197.371 42.7079 196.862 43.7353 196.091 44.6136C195.329 45.4837 194.343 46.1631 193.133 46.652C191.932 47.1326 190.544 47.3729 188.969 47.3729ZM206.482 21.5455V47H201.187V21.5455H206.482ZM229.848 21.5455V47H224.467V26.6538H224.317L218.488 30.3079V25.5352L224.79 21.5455H229.848Z" fill="black"/>
<path d="M108.558 176.313C107.175 178.907 105.436 181.323 103.384 183.5C105.436 185.677 107.175 188.093 108.558 190.687C113.278 199.735 113.278 210.39 113.278 220.706C113.278 242.606 114.912 247.764 131.431 247.764C134.32 247.764 137.091 248.833 139.133 250.736C141.176 252.639 142.323 255.22 142.323 257.911C142.323 260.602 141.176 263.183 139.133 265.086C137.091 266.989 134.32 268.058 131.431 268.058C114.095 268.058 102.204 262.223 96.2133 250.724C91.4934 241.676 91.4934 231.021 91.4934 220.706C91.4934 198.805 89.8595 193.647 73.3398 193.647C70.451 193.647 67.6806 192.578 65.6379 190.675C63.5952 188.772 62.4476 186.191 62.4476 183.5C62.4476 180.809 63.5952 178.228 65.6379 176.325C67.6806 174.422 70.451 173.353 73.3398 173.353C89.8595 173.353 91.4934 168.195 91.4934 146.295C91.4934 135.979 91.4934 125.324 96.2133 116.276C102.204 104.777 114.095 98.9421 131.431 98.9421C134.32 98.9421 137.091 100.011 139.133 101.914C141.176 103.817 142.323 106.398 142.323 109.089C142.323 111.78 141.176 114.361 139.133 116.264C137.091 118.167 134.32 119.236 131.431 119.236C114.912 119.236 113.278 124.394 113.278 146.295C113.278 156.611 113.278 167.265 108.558 176.313ZM276.66 173.353C260.14 173.353 258.506 168.195 258.506 146.295C258.506 135.979 258.506 125.324 253.787 116.276C247.796 104.777 235.905 98.9421 218.568 98.9421C215.68 98.9421 212.91 100.011 210.867 101.914C208.824 103.817 207.677 106.398 207.677 109.089C207.677 111.78 208.824 114.361 210.867 116.264C212.91 118.167 215.68 119.236 218.568 119.236C235.088 119.236 236.722 124.394 236.722 146.295C236.722 156.611 236.722 167.265 241.442 176.313C242.824 178.907 244.565 181.323 246.615 183.5C244.565 185.677 242.824 188.093 241.442 190.687C236.722 199.735 236.722 210.39 236.722 220.706C236.722 242.606 235.088 247.764 218.568 247.764C215.68 247.764 212.91 248.833 210.867 250.736C208.824 252.639 207.677 255.22 207.677 257.911C207.677 260.602 208.824 263.183 210.867 265.086C212.91 266.989 215.68 268.058 218.568 268.058C235.905 268.058 247.796 262.223 253.787 250.724C258.506 241.676 258.506 231.021 258.506 220.706C258.506 198.805 260.14 193.647 276.66 193.647C279.549 193.647 282.319 192.578 284.362 190.675C286.405 188.772 287.552 186.191 287.552 183.5C287.552 180.809 286.405 178.228 284.362 176.325C282.319 174.422 279.549 173.353 276.66 173.353Z" fill="#FF1493"/>
</svg>
