<svg width="350" height="320" viewBox="0 0 350 320" fill="none" xmlns="http://www.w3.org/2000/svg">
<path d="M120.212 47V21.5455H125.594V42.5629H136.507V47H120.212ZM148.672 47.3729C146.708 47.3729 145.017 46.9751 143.601 46.1797C142.192 45.3759 141.107 44.2408 140.344 42.7741C139.582 41.2992 139.201 39.555 139.201 37.5415C139.201 35.5778 139.582 33.8543 140.344 32.3711C141.107 30.8879 142.18 29.732 143.563 28.9034C144.955 28.0748 146.588 27.6605 148.46 27.6605C149.72 27.6605 150.892 27.8635 151.978 28.2695C153.071 28.6673 154.024 29.268 154.836 30.0717C155.657 30.8755 156.295 31.8864 156.75 33.1044C157.206 34.3142 157.434 35.7311 157.434 37.3551V38.8093H141.314V35.5281H152.45C152.45 34.7657 152.284 34.0904 151.953 33.5021C151.621 32.9138 151.162 32.454 150.573 32.1225C149.993 31.7828 149.318 31.6129 148.547 31.6129C147.744 31.6129 147.031 31.7994 146.41 32.1722C145.796 32.5368 145.316 33.0298 144.968 33.6513C144.62 34.2644 144.442 34.948 144.433 35.7021V38.8217C144.433 39.7663 144.607 40.5825 144.955 41.2702C145.312 41.958 145.813 42.4883 146.459 42.8612C147.106 43.234 147.872 43.4205 148.759 43.4205C149.347 43.4205 149.886 43.3376 150.374 43.1719C150.863 43.0062 151.282 42.7576 151.63 42.4261C151.978 42.0947 152.243 41.6887 152.425 41.2081L157.322 41.5312C157.074 42.7079 156.564 43.7353 155.793 44.6136C155.031 45.4837 154.045 46.1631 152.835 46.652C151.634 47.1326 150.246 47.3729 148.672 47.3729ZM178.175 27.9091L171.501 47H165.535L158.86 27.9091H164.453L168.418 41.5685H168.617L172.569 27.9091H178.175ZM188.969 47.3729C187.006 47.3729 185.315 46.9751 183.898 46.1797C182.49 45.3759 181.404 44.2408 180.642 42.7741C179.88 41.2992 179.499 39.555 179.499 37.5415C179.499 35.5778 179.88 33.8543 180.642 32.3711C181.404 30.8879 182.477 29.732 183.861 28.9034C185.253 28.0748 186.886 27.6605 188.758 27.6605C190.018 27.6605 191.19 27.8635 192.276 28.2695C193.369 28.6673 194.322 29.268 195.134 30.0717C195.955 30.8755 196.593 31.8864 197.048 33.1044C197.504 34.3142 197.732 35.7311 197.732 37.3551V38.8093H181.612V35.5281H192.748C192.748 34.7657 192.582 34.0904 192.251 33.5021C191.919 32.9138 191.459 32.454 190.871 32.1225C190.291 31.7828 189.616 31.6129 188.845 31.6129C188.041 31.6129 187.329 31.7994 186.707 32.1722C186.094 32.5368 185.614 33.0298 185.266 33.6513C184.918 34.2644 184.739 34.948 184.731 35.7021V38.8217C184.731 39.7663 184.905 40.5825 185.253 41.2702C185.609 41.958 186.111 42.4883 186.757 42.8612C187.403 43.234 188.17 43.4205 189.056 43.4205C189.645 43.4205 190.183 43.3376 190.672 43.1719C191.161 43.0062 191.58 42.7576 191.928 42.4261C192.276 42.0947 192.541 41.6887 192.723 41.2081L197.62 41.5312C197.371 42.7079 196.862 43.7353 196.091 44.6136C195.329 45.4837 194.343 46.1631 193.133 46.652C191.932 47.1326 190.544 47.3729 188.969 47.3729ZM206.482 21.5455V47H201.187V21.5455H206.482ZM218.774 47V43.1222L227.835 34.7326C228.605 33.9869 229.252 33.3157 229.774 32.7191C230.304 32.1225 230.706 31.5384 230.979 30.9666C231.253 30.3866 231.39 29.761 231.39 29.0898C231.39 28.3441 231.22 27.7019 230.88 27.1634C230.54 26.6165 230.076 26.198 229.488 25.908C228.9 25.6097 228.233 25.4606 227.487 25.4606C226.708 25.4606 226.029 25.618 225.449 25.9329C224.868 26.2478 224.421 26.6993 224.106 27.2876C223.791 27.8759 223.634 28.5761 223.634 29.3881H218.526C218.526 27.7227 218.903 26.2768 219.657 25.0504C220.411 23.8241 221.467 22.8754 222.826 22.2042C224.185 21.533 225.751 21.1974 227.524 21.1974C229.347 21.1974 230.934 21.5206 232.284 22.1669C233.643 22.8049 234.7 23.6915 235.454 24.8267C236.208 25.9619 236.585 27.2628 236.585 28.7294C236.585 29.6906 236.394 30.6393 236.013 31.5756C235.64 32.512 234.973 33.5518 234.012 34.6953C233.051 35.8305 231.696 37.1935 229.948 38.7844L226.232 42.4261V42.6001H236.92V47H218.774Z" fill="black"/>
<path d="M120.76 126.558C165.96 145.039 184.04 218.961 229.24 237.442C274.44 255.922 288 214.341 288 182C288 149.659 274.44 108.078 229.24 126.558C184.04 145.039 165.96 218.961 120.76 237.442C75.56 255.922 62 214.341 62 182C62 149.659 75.56 108.078 120.76 126.558Z" stroke="#F24E1E" stroke-width="15" stroke-linecap="round" stroke-linejoin="round"/>
</svg>
