<svg width="350" height="320" viewBox="0 0 350 320" fill="none" xmlns="http://www.w3.org/2000/svg">
<path d="M233.41 97.1608L230.224 112.426C226.996 112.934 223.849 113.867 220.866 115.202L209.899 104.124L197.411 114.23L205.953 127.282C204.05 129.893 202.496 132.763 201.316 135.852L185.712 135.781L184.035 151.765L199.3 154.951C199.813 158.214 200.759 161.334 202.077 164.281L190.998 175.276L201.104 187.764L214.156 179.208C216.795 181.131 219.676 182.695 222.726 183.859L222.655 199.449L238.64 201.125L241.811 185.86C245.078 185.348 248.221 184.417 251.17 183.098L262.15 194.176L274.638 184.056L266.083 171.018C268.005 168.38 269.57 165.498 270.734 162.449L286.323 162.505L288 146.521L272.735 143.364C272.222 140.095 271.292 136.941 269.972 133.991L281.051 123.024L270.931 110.536L257.893 119.078C255.281 117.174 252.399 115.607 249.309 114.427L249.379 98.8375L233.41 97.1608ZM236.06 134.287C236.562 134.289 237.072 134.304 237.582 134.357C245.747 135.215 251.661 142.528 250.803 150.694C249.946 158.859 242.633 164.787 234.467 163.929C226.302 163.071 220.374 155.758 221.232 147.593C222.036 139.938 228.525 134.261 236.06 134.287ZM121.368 135.598L119.226 156.825C114.856 157.99 110.716 159.711 106.893 161.927L90.3734 148.425L74.8264 163.972L88.3296 180.505C86.1133 184.33 84.3915 188.466 83.2272 192.838L62 194.966V216.954L83.227 219.097C84.3756 223.411 86.0914 227.553 88.3294 231.416L74.8263 247.949L90.3732 263.496L106.907 249.993C110.769 252.231 114.912 253.947 119.226 255.096L121.368 276.323H143.356L145.485 255.096C149.856 253.931 153.993 252.21 157.818 249.993L174.351 263.496L189.898 247.949L176.395 231.43C178.611 227.606 180.332 223.467 181.497 219.097L202.725 216.954V194.966L181.497 192.838C180.332 188.464 178.613 184.317 176.395 180.49L189.898 163.971L174.351 148.424L157.832 161.927C154.006 159.709 149.859 157.99 145.484 156.824L143.356 135.597H121.368V135.598ZM132.363 185.621C143.596 185.621 152.702 194.727 152.702 205.96C152.702 217.194 143.596 226.299 132.363 226.299C121.129 226.299 112.023 217.194 112.023 205.96C112.023 194.727 121.129 185.621 132.363 185.621ZM225.714 212.782L223.473 223.945C221.178 224.321 218.977 225.01 216.905 225.975L209.181 217.87L200.413 225.27L206.418 234.813C205.08 236.723 203.977 238.826 203.148 241.085L192.196 241.029L191.012 252.727L201.739 255.053C202.092 257.406 202.746 259.703 203.684 261.89L195.903 269.924L203.007 279.057L212.183 272.799C214.027 274.198 216.051 275.341 218.202 276.196L218.159 287.613L229.393 288.839L231.62 277.662C233.916 277.287 236.115 276.611 238.188 275.646L245.912 283.751L254.693 276.351L248.675 266.809C250.013 264.899 251.115 262.795 251.945 260.536L262.911 260.579L264.081 248.894L253.355 246.568C252.994 244.177 252.338 241.876 251.41 239.718L259.19 231.698L252.086 222.55L242.925 228.808C241.089 227.415 239.064 226.275 236.892 225.411L236.948 214.008L225.714 212.782ZM227.575 239.929C227.928 239.931 228.287 239.947 228.646 239.986C234.385 240.614 238.537 245.965 237.935 251.939C237.332 257.912 232.2 262.25 226.461 261.622C220.722 260.995 216.555 255.643 217.158 249.669C217.723 244.069 222.279 239.91 227.575 239.929Z" fill="#0FA958"/>
<path d="M120.212 47V21.5455H125.594V42.5629H136.507V47H120.212ZM148.672 47.3729C146.708 47.3729 145.017 46.9751 143.601 46.1797C142.192 45.3759 141.107 44.2408 140.344 42.7741C139.582 41.2992 139.201 39.555 139.201 37.5415C139.201 35.5778 139.582 33.8543 140.344 32.3711C141.107 30.8879 142.18 29.732 143.563 28.9034C144.955 28.0748 146.588 27.6605 148.46 27.6605C149.72 27.6605 150.892 27.8635 151.978 28.2695C153.071 28.6673 154.024 29.268 154.836 30.0717C155.657 30.8755 156.295 31.8864 156.75 33.1044C157.206 34.3142 157.434 35.7311 157.434 37.3551V38.8093H141.314V35.5281H152.45C152.45 34.7657 152.284 34.0904 151.953 33.5021C151.621 32.9138 151.162 32.454 150.573 32.1225C149.993 31.7828 149.318 31.6129 148.547 31.6129C147.744 31.6129 147.031 31.7994 146.41 32.1722C145.796 32.5368 145.316 33.0298 144.968 33.6513C144.62 34.2644 144.442 34.948 144.433 35.7021V38.8217C144.433 39.7663 144.607 40.5825 144.955 41.2702C145.312 41.958 145.813 42.4883 146.459 42.8612C147.106 43.234 147.872 43.4205 148.759 43.4205C149.347 43.4205 149.886 43.3376 150.374 43.1719C150.863 43.0062 151.282 42.7576 151.63 42.4261C151.978 42.0947 152.243 41.6887 152.425 41.2081L157.322 41.5312C157.074 42.7079 156.564 43.7353 155.793 44.6136C155.031 45.4837 154.045 46.1631 152.835 46.652C151.634 47.1326 150.246 47.3729 148.672 47.3729ZM178.175 27.9091L171.501 47H165.535L158.86 27.9091H164.453L168.418 41.5685H168.617L172.569 27.9091H178.175ZM188.969 47.3729C187.006 47.3729 185.315 46.9751 183.898 46.1797C182.49 45.3759 181.404 44.2408 180.642 42.7741C179.88 41.2992 179.499 39.555 179.499 37.5415C179.499 35.5778 179.88 33.8543 180.642 32.3711C181.404 30.8879 182.477 29.732 183.861 28.9034C185.253 28.0748 186.886 27.6605 188.758 27.6605C190.018 27.6605 191.19 27.8635 192.276 28.2695C193.369 28.6673 194.322 29.268 195.134 30.0717C195.955 30.8755 196.593 31.8864 197.048 33.1044C197.504 34.3142 197.732 35.7311 197.732 37.3551V38.8093H181.612V35.5281H192.748C192.748 34.7657 192.582 34.0904 192.251 33.5021C191.919 32.9138 191.459 32.454 190.871 32.1225C190.291 31.7828 189.616 31.6129 188.845 31.6129C188.041 31.6129 187.329 31.7994 186.707 32.1722C186.094 32.5368 185.614 33.0298 185.266 33.6513C184.918 34.2644 184.739 34.948 184.731 35.7021V38.8217C184.731 39.7663 184.905 40.5825 185.253 41.2702C185.609 41.958 186.111 42.4883 186.757 42.8612C187.403 43.234 188.17 43.4205 189.056 43.4205C189.645 43.4205 190.183 43.3376 190.672 43.1719C191.161 43.0062 191.58 42.7576 191.928 42.4261C192.276 42.0947 192.541 41.6887 192.723 41.2081L197.62 41.5312C197.371 42.7079 196.862 43.7353 196.091 44.6136C195.329 45.4837 194.343 46.1631 193.133 46.652C191.932 47.1326 190.544 47.3729 188.969 47.3729ZM206.482 21.5455V47H201.187V21.5455H206.482ZM228.183 47.348C226.327 47.348 224.674 47.029 223.224 46.391C221.782 45.7447 220.643 44.8581 219.806 43.7312C218.977 42.596 218.55 41.2868 218.526 39.8036H223.945C223.978 40.4251 224.181 40.9719 224.554 41.4442C224.935 41.9083 225.44 42.2687 226.07 42.5256C226.7 42.7824 227.408 42.9109 228.195 42.9109C229.016 42.9109 229.741 42.7659 230.37 42.4759C231 42.1858 231.493 41.784 231.849 41.2702C232.206 40.7565 232.384 40.1641 232.384 39.4929C232.384 38.8134 232.193 38.2127 231.812 37.6907C231.439 37.1604 230.901 36.7461 230.196 36.4478C229.5 36.1495 228.672 36.0004 227.711 36.0004H225.337V32.0479H227.711C228.523 32.0479 229.239 31.9071 229.861 31.6254C230.491 31.3436 230.979 30.9542 231.327 30.457C231.675 29.9516 231.849 29.3633 231.849 28.6921C231.849 28.0541 231.696 27.4948 231.39 27.0142C231.091 26.5253 230.669 26.1442 230.122 25.8707C229.583 25.5973 228.953 25.4606 228.233 25.4606C227.503 25.4606 226.836 25.5932 226.232 25.8583C225.627 26.1152 225.142 26.4839 224.777 26.9645C224.413 27.4451 224.218 28.0085 224.193 28.6548H219.035C219.06 27.1882 219.478 25.8956 220.29 24.777C221.103 23.6584 222.196 22.7842 223.572 22.1545C224.955 21.5165 226.517 21.1974 228.257 21.1974C230.014 21.1974 231.551 21.5165 232.869 22.1545C234.186 22.7925 235.209 23.6542 235.939 24.7397C236.676 25.8169 237.041 27.0266 237.032 28.369C237.041 29.7942 236.597 30.9832 235.702 31.9361C234.816 32.889 233.66 33.4938 232.235 33.7507V33.9496C234.107 34.1899 235.533 34.8403 236.51 35.9009C237.496 36.9532 237.985 38.2707 237.977 39.8533C237.985 41.3034 237.567 42.5919 236.722 43.7188C235.885 44.8456 234.729 45.7322 233.254 46.3786C231.779 47.0249 230.089 47.348 228.183 47.348Z" fill="black"/>
</svg>
